<?xml version="1.0" encoding="utf-8"?>
<!-- Generator: Adobe Illustrator 26.3.1, SVG Export Plug-In . SVG Version: 6.00 Build 0)  -->
<svg version="1.1" id="图层_1" xmlns="http://www.w3.org/2000/svg" xmlns:xlink="http://www.w3.org/1999/xlink" x="0px" y="0px"
	 viewBox="0 0 382.7 382.7" style="enable-background:new 0 0 382.7 382.7;" xml:space="preserve">
<style type="text/css">
	.st0{fill:#71828F;}
	.st1{fill:#CFD1D5;}
	.st2{fill:#DEE2E5;}
</style>
<path class="st0" d="M300.6,313.4H79c-25.3,0-45.8-20.5-45.8-45.8V153.8c0-25.3,20.5-45.8,45.8-45.8h221.6
	c25.3,0,45.8,20.5,45.8,45.8v113.8C346.4,292.9,325.9,313.4,300.6,313.4z"/>
<path class="st0" d="M33.2,223.9V111.1c0-25.7,20.5-46.5,45.8-46.5h115.1c25.3,0,45.8,20.8,45.8,46.5"/>
<path class="st0" d="M312.1,223.9"/>
<path class="st1" d="M45.6,157.8L45.6,157.8c0-25.7,20.5-46.5,45.8-46.5h93.7c25.3,0,38.3,19.8,38.3,45.5"/>
<path class="st2" d="M45.2,157.8L45.2,157.8c0-25.7,20.5-46.5,45.8-46.5h93.7c25.3,0,43.3,20.8,43.3,46.5"/>
</svg>
